<svg width="172" height="172" viewBox="0 0 172 172" fill="none" xmlns="http://www.w3.org/2000/svg" transform="rotate(270)">
  <path d="M90.5312 20.6825C90.5312 19.8062 89.8208 19.0957 88.9445 19.0957H82.5974C81.721 19.0957 81.0106 19.8062 81.0106 20.6825V153.008C81.0106 153.885 81.721 154.595 82.5974 154.595H88.9445C89.8208 154.595 90.5312 153.885 90.5312 153.008V20.6825Z" fill="#171717" stroke="#171717" stroke-width="5"/>
  <path d="M1.4599 86.8076L71.8973 157.245C72.1948 157.542 72.5984 157.71 73.0193 157.71L99.0276 157.71C99.4484 157.71 99.852 157.542 100.15 157.245L170.587 86.8076C171.207 86.1879 171.207 85.1832 170.587 84.5635L164.908 78.885C164.284 78.261 163.271 78.266 162.653 78.8963L96.1501 146.748C95.8517 147.052 95.4433 147.224 95.0169 147.224L77.03 147.224C76.6036 147.224 76.1952 147.052 75.8967 146.748L9.39364 78.8963C8.77586 78.266 7.76248 78.261 7.13841 78.885L1.45991 84.5635C0.840233 85.1832 0.840232 86.1879 1.4599 86.8076Z" fill="#171717" stroke="#171717" stroke-width="5"/>
</svg>
